Coordinates
version=1
nRows=10
nColumns=40
inDegrees=yes

Units are S.I. units (second, meters, Newtons, ...)
Angles are in degrees.

endheader
time	pelvis_tilt	pelvis_list	pelvis_rotation	pelvis_tx	pelvis_ty	pelvis_tz	hip_flexion_r	hip_adduction_r	hip_rotation_r	knee_angle_r	knee_angle_r_beta	ankle_angle_r	subtalar_angle_r	mtp_angle_r	hip_flexion_l	hip_adduction_l	hip_rotation_l	knee_angle_l	knee_angle_l_beta	ankle_angle_l	subtalar_angle_l	mtp_angle_l	lumbar_extension	lumbar_bending	lumbar_rotation	arm_flex_r	arm_add_r	arm_rot_r	elbow_flex_r	pro_sup_r	wrist_flex_r	wrist_dev_r	arm_flex_l	arm_add_l	arm_rot_l	elbow_flex_l	pro_sup_l	wrist_flex_l	wrist_dev_l
      1.35000000	    -35.05985236	      0.12981790	     -3.96218924	     -2.02085275	      0.93400879	      0.19560555	     38.23922451	     -0.21682651	     -8.80494629	      7.64561228	      7.64561228	     -2.21232888	      0.00000000	      0.00000000	     35.70165039	     -2.36016440	     -7.70885304	      4.67490222	      4.67490222	     -3.48740984	      0.00000000	      0.00000000	     34.57484876	     -0.54857182	     -0.46694371	     -3.43187871	    -14.13922212	     24.37754075	     33.84550953	     60.28225054	      0.00000000	      0.00000000	     -3.78304996	    -11.48518599	     26.19087609	     18.50049588	     57.72497859	      0.00000000	      0.00000000
      1.36000000	    -35.05033546	      0.11645149	     -4.00104303	     -2.01991215	      0.93399370	      0.19457382	     38.28624118	     -0.27568422	     -8.82902889	      7.86874789	      7.86874789	     -2.13184148	      0.00000000	      0.00000000	     35.67835635	     -2.33053598	     -7.67084038	      4.78266151	      4.78266151	     -3.36371218	      0.00000000	      0.00000000	     34.48930357	     -0.55219553	     -0.49322902	     -3.38372390	    -14.11419863	     24.35489928	     33.82522462	     60.13104057	      0.00000000	      0.00000000	     -3.72486850	    -11.39526076	     26.04328647	     18.43611611	     57.64603139	      0.00000000	      0.00000000
      1.37000000	    -35.02716192	      0.10090935	     -4.02769579	     -2.01898928	      0.93398981	      0.19347446	     38.33963899	     -0.34473038	     -8.85230514	      8.12779515	      8.12779515	     -1.99062742	      0.00000000	      0.00000000	     35.67166033	     -2.29615993	     -7.69233835	      4.94403852	      4.94403852	     -3.21086952	      0.00000000	      0.00000000	     34.37240473	     -0.55853442	     -0.54531989	     -3.32914041	    -14.13417047	     24.43641852	     33.83637994	     60.09943082	      0.00000000	      0.00000000	     -3.64754964	    -11.33203862	     26.07536153	     18.35810173	     57.70706485	      0.00000000	      0.00000000
      1.38000000	    -35.01107250	      0.05984514	     -4.05591132	     -2.01779808	      0.93396473	      0.19234957	     38.35564548	     -0.39024934	     -8.86441511	      8.33441468	      8.33441468	     -1.89863028	      0.00000000	      0.00000000	     35.63084005	     -2.27879802	     -7.66661858	      5.05874794	      5.05874794	     -3.05783843	      0.00000000	      0.00000000	     34.28491330	     -0.52539648	     -0.58912763	     -3.46511568	    -14.14740230	     24.17186099	     34.07815197	     59.75209967	      0.00000000	      0.00000000	     -3.68291250	    -11.26520044	     25.75415037	     18.50807447	     57.46679332	      0.00000000	      0.00000000
      1.39000000	    -34.95096090	      0.07461744	     -4.09002657	     -2.01691218	      0.93402628	      0.19119788	     38.46052379	     -0.50195322	     -8.86042853	      8.75770893	      8.75770893	     -1.73513395	      0.00000000	      0.00000000	     35.59608747	     -2.21408175	     -7.70203895	      5.23156151	      5.23156151	     -2.96149951	      0.00000000	      0.00000000	     34.12118436	     -0.56173006	     -0.62224399	     -3.29377284	    -14.25846010	     24.76118179	     33.92766157	     60.00541304	      0.00000000	      0.00000000	     -3.45734843	    -11.23662586	     26.49679248	     18.17368362	     57.97714831	      0.00000000	      0.00000000
      1.40000000	    -34.91106425	      0.04243242	     -4.12989898	     -2.01580755	      0.93401865	      0.19007114	     38.48472752	     -0.54551495	     -8.84227849	      8.97970952	      8.97970952	     -1.68863680	      0.00000000	      0.00000000	     35.56637626	     -2.20337944	     -7.68925123	      5.42014000	      5.42014000	     -2.85466176	      0.00000000	      0.00000000	     33.94799625	     -0.54172151	     -0.69401051	     -3.45889750	    -14.29407785	     24.40120938	     34.29119100	     59.65120161	      0.00000000	      0.00000000	     -3.53935819	    -11.21431478	     26.11225400	     18.51342546	     57.67132340	      0.00000000	      0.00000000
      1.41000000	    -34.88825109	     -0.00633708	     -4.16584120	     -2.01478424	      0.93408432	      0.18891258	     38.70197867	     -0.61769659	     -8.96890610	      9.60890578	      9.60890578	     -1.49674657	      0.00000000	      0.00000000	     35.56638362	     -2.19288209	     -7.74020118	      5.59486188	      5.59486188	     -2.60974790	      0.00000000	      0.00000000	     33.86066339	     -0.50656350	     -0.76400391	     -3.29459392	    -14.23677661	     24.62412049	     33.87117686	     59.62753863	      0.00000000	      0.00000000	     -3.30459001	    -11.05170720	     26.39376046	     18.05825786	     57.71128664	      0.00000000	      0.00000000
      1.42000000	    -34.75987531	     -0.03127128	     -4.18820917	     -2.01364276	      0.93424671	      0.18769232	     38.73429894	     -0.70773430	     -8.96303909	     10.06035079	     10.06035079	     -1.38698956	      0.00000000	      0.00000000	     35.45360271	     -2.14989643	     -7.75919317	      5.78283971	      5.78283971	     -2.53076463	      0.00000000	      0.00000000	     33.58993341	     -0.50775500	     -0.84953045	     -3.28834845	    -14.29792593	     24.69359725	     33.91673477	     59.69150709	      0.00000000	      0.00000000	     -3.17091454	    -10.99402682	     26.54641135	     17.98425643	     57.77550742	      0.00000000	      0.00000000
      1.43000000	    -34.64792313	     -0.04751170	     -4.21398002	     -2.01234625	      0.93435986	      0.18643149	     38.83498506	     -0.82083645	     -9.05800648	     10.63408270	     10.63408270	     -1.14864741	      0.00000000	      0.00000000	     35.34641785	     -2.09359005	     -7.82373857	      5.97865572	      5.97865572	     -2.32753642	      0.00000000	      0.00000000	     33.37258055	     -0.50436770	     -0.89717245	     -3.33093078	    -14.34304652	     24.75853303	     33.88398546	     59.75112516	      0.00000000	      0.00000000	     -3.02043350	    -10.90341828	     26.70822774	     17.86098420	     57.79779965	      0.00000000	      0.00000000
      1.44000000	    -34.54299642	     -0.07943442	     -4.23904629	     -2.01111494	      0.93448205	      0.18521199	     38.94632913	     -0.91123116	     -9.08154620	     11.20434903	     11.20434903	     -1.01740325	      0.00000000	      0.00000000	     35.24772430	     -2.05932365	     -7.85151098	      6.16028154	      6.16028154	     -2.19724033	      0.00000000	      0.00000000	     33.13849308	     -0.49565598	     -1.01168185	     -3.35528321	    -14.39328009	     24.77163644	     33.86809367	     59.78228928	      0.00000000	      0.00000000	     -2.88734146	    -10.82703463	     26.80023978	     17.77171843	     57.76481728	      0.00000000	      0.00000000
